<!--?xml version="1.0" standalone="no"?-->
              <svg id="sw-js-blob-svg" viewBox="0 0 100 100" xmlns="http://www.w3.org/2000/svg" version="1.1">
                    <defs> 
                        <linearGradient id="sw-gradient" x1="0" x2="1" y1="1" y2="0">
                            <stop id="stop1" stop-color="rgba(248, 117, 55, 1)" offset="0%"></stop>
                            <stop id="stop2" stop-color="rgba(251, 168, 31, 1)" offset="100%"></stop>
                        </linearGradient>
                    </defs>
                <path fill="url(#sw-gradient)" d="M10.2,-18.5C13.6,-15.7,17.1,-13.8,20.9,-10.8C24.7,-7.9,28.9,-3.9,32.2,2C35.6,7.8,38.2,15.7,36.4,22.1C34.5,28.4,28.3,33.3,21.5,37.1C14.7,41,7.3,43.8,1.1,41.8C-5.1,39.9,-10.2,33.2,-17.4,29.6C-24.6,26,-33.9,25.5,-36.9,21C-40,16.6,-36.8,8.3,-31.8,2.9C-26.8,-2.5,-19.8,-5,-16.8,-9.4C-13.7,-13.8,-14.5,-20.1,-12.3,-23.6C-10.2,-27.2,-5.1,-28,-0.8,-26.5C3.4,-25.1,6.8,-21.4,10.2,-18.5Z" width="100%" height="100%" transform="translate(50 50)" stroke-width="0" style="transition: all 0.3s ease 0s;"></path>
              </svg>