<svg width="462" height="425" viewBox="0 0 462 425" fill="none" xmlns="http://www.w3.org/2000/svg">
<circle cx="67.9" cy="270.2" r="51.8" fill="#E7EFF5"/>
<circle cx="177.8" cy="51.8" r="51.8" fill="#E7EFF5"/>
<path d="M248.301 326.409H262.042H272.991C318.883 326.409 357.594 292.237 363.288 246.699L373.998 161.04C374.479 157.2 372.142 153.568 368.449 152.412L365.66 151.539C330.496 140.536 298.254 121.775 271.313 96.6413L267.284 92.8825C264.3 90.0991 259.7 90.0071 256.608 92.669L245.725 102.037C220.591 123.671 191.343 140.001 159.738 150.043L152.375 152.383C148.686 153.555 146.365 157.2 146.864 161.039L158.061 247.143C163.957 292.483 202.58 326.409 248.301 326.409Z" fill="#E7EFF5"/>
<path d="M170.062 170.677L177.585 229.124C183.031 271.433 219.052 303.115 261.71 303.115C303.228 303.115 338.236 272.173 343.335 230.97L350.855 170.212C351.248 167.031 349.317 164.023 346.261 163.057C316.925 153.783 290.061 138.006 267.672 116.904L266.271 115.584C263.682 113.144 259.666 113.063 256.982 115.398L252.752 119.076C230.074 138.797 203.625 153.703 175.011 162.889C171.699 163.952 169.618 167.227 170.062 170.677Z" fill="#2C85BC"/>
<rect x="235.742" y="164.724" width="49.956" height="65.4186" rx="24.978" stroke="#9BB8D3" stroke-width="9"/>
<rect x="213.143" y="187.323" width="95.1543" height="73.7446" rx="13" fill="#E7EFF5"/>
<circle cx="260.72" cy="220.627" r="10.7049" fill="#185A7D"/>
<rect x="255.962" y="223.005" width="9.51544" height="20.2203" rx="4.75772" fill="#185A7D"/>
<ellipse cx="177.685" cy="78.3189" rx="21.0964" ry="4.0488" fill="#E7EFF5"/>
<circle cx="178.055" cy="44.9522" r="24.595" fill="#FFC600"/>
<path d="M162.904 64.2347L169.278 62.662C175.023 61.2443 181.045 61.3977 186.711 63.1062L192.41 64.8249L177.268 76.8273L162.904 64.2347Z" fill="#01426A"/>
<path d="M167.839 43.9685C167.309 43.9685 166.8 44.179 166.426 44.5537C166.051 44.9283 165.841 45.4365 165.841 45.9664C165.841 46.4962 166.051 47.0044 166.426 47.3791C166.8 47.7538 167.309 47.9642 167.839 47.9642L167.839 45.9664V43.9685Z" fill="#FED880"/>
<path d="M187.484 47.9642C188.014 47.9642 188.522 47.7537 188.897 47.3791C189.272 47.0044 189.482 46.4962 189.482 45.9664C189.482 45.4365 189.272 44.9283 188.897 44.5537C188.522 44.179 188.014 43.9685 187.484 43.9685L187.484 45.9664L187.484 47.9642Z" fill="#FED880"/>
<path d="M167.838 41.4543C167.838 36.5903 171.782 32.6472 176.646 32.6472H178.677C183.541 32.6472 187.484 36.5903 187.484 41.4543V47.1318C187.484 52.5568 183.086 56.9546 177.661 56.9546C172.236 56.9546 167.838 52.5568 167.838 47.1318V41.4543Z" fill="#FFE5B7"/>
<path d="M169.838 40.8451C169.838 37.4221 172.613 34.6472 176.036 34.6472H180.1C179.574 39.5127 175.453 43.3004 170.448 43.3004H169.838V40.8451Z" fill="#01426A" stroke="#01426A" stroke-width="4"/>
<path d="M183.987 30.6493C183.987 32.6002 182.477 34.145 180.658 34.145C178.839 34.145 177.329 32.6002 177.329 30.6493C177.329 28.6984 178.839 27.1536 180.658 27.1536C182.477 27.1536 183.987 28.6984 183.987 30.6493Z" fill="#01426A" stroke="#01426A"/>
<path d="M185.484 38.9555C185.484 37.1601 184.386 35.6212 182.825 34.974V39.1378C182.825 40.9068 183.928 42.418 185.484 43.0208V38.9555Z" fill="#01426A" stroke="#01426A" stroke-width="4"/>
<circle cx="372.4" cy="385" r="37.1" fill="#E7EFF5"/>
<circle cx="413.7" cy="354.2" r="48.3" fill="#E7EFF5"/>
<circle cx="76.9738" cy="277.772" r="7.98849" transform="rotate(-30 76.9738 277.772)" fill="#D6AC50"/>
<circle cx="57.9148" cy="246.356" r="5.32566" transform="rotate(-30 57.9148 246.356)" fill="#01426A"/>
<path d="M98.1046 265.934C98.6231 266.665 98.81 267.552 98.6221 268.416C98.4163 269.29 97.8934 270.011 97.1168 270.459L59.1878 292.357C58.4112 292.806 57.5253 292.898 56.6745 292.634C55.8238 292.37 55.1492 291.765 54.7752 290.95C54.1181 289.52 54.774 287.716 56.264 286.855C58.6482 285.479 59.4741 282.426 58.1041 280.053L51.7682 269.079C49.4954 265.142 48.9443 260.559 50.2116 256.184C51.4198 251.999 54.14 248.535 57.9148 246.356C58.0954 246.251 58.2669 246.152 58.4528 246.057C66.2755 241.9 76.3492 244.916 80.8897 252.781L87.0024 263.368C88.3724 265.741 91.4295 266.552 93.8137 265.176C95.3037 264.316 97.1856 264.655 98.1046 265.934Z" fill="#FFC600"/>
<path d="M70.8545 237.679L71.0543 237.646C76.7758 236.705 82.2407 240.382 83.5241 246.037V246.037" stroke="#2C85BC" stroke-width="4" stroke-linecap="round" stroke-linejoin="round"/>
<path d="M61.5708 300.852L61.3827 300.927C55.9956 303.072 49.8698 300.651 47.4047 295.402V295.402" stroke="#2C85BC" stroke-width="4" stroke-linecap="round" stroke-linejoin="round"/>
<path d="M76.4463 232.509L76.9833 232.528C81.1998 232.679 84.9423 235.271 86.5651 239.166V239.166" stroke="#E7EFF5" stroke-width="4" stroke-linecap="round" stroke-linejoin="round"/>
<path d="M57.8066 306.536V306.536C53.338 307.653 48.6451 305.841 46.0901 302.009V302.009" stroke="#E7EFF5" stroke-width="4" stroke-linecap="round" stroke-linejoin="round"/>
<ellipse cx="372.785" cy="386.088" rx="24.364" ry="24.784" fill="white"/>
<path fill-rule="evenodd" clip-rule="evenodd" d="M379.613 376.098C379.514 376.098 379.415 376.072 379.328 376.022C376.944 374.771 374.882 374.241 372.411 374.241C369.953 374.241 367.618 374.835 365.495 376.022C365.197 376.186 364.824 376.072 364.65 375.769C364.489 375.466 364.601 375.075 364.899 374.91C367.208 373.635 369.741 372.978 372.411 372.978C375.056 372.978 377.366 373.571 379.899 374.898C380.209 375.062 380.321 375.441 380.16 375.744C380.048 375.971 379.837 376.098 379.613 376.098ZM361.844 382.729C361.72 382.729 361.596 382.691 361.484 382.616C361.198 382.414 361.136 382.022 361.335 381.731C362.564 379.963 364.129 378.573 365.991 377.601C369.89 375.555 374.882 375.542 378.794 377.588C380.656 378.561 382.221 379.938 383.45 381.693C383.649 381.971 383.587 382.376 383.301 382.578C383.016 382.78 382.631 382.717 382.432 382.426C381.315 380.835 379.899 379.584 378.223 378.712C374.659 376.856 370.102 376.856 366.55 378.725C364.861 379.609 363.446 380.872 362.328 382.464C362.229 382.641 362.043 382.729 361.844 382.729ZM369.17 397.786C369.282 397.913 369.443 397.976 369.605 397.976C369.766 397.976 369.928 397.913 370.064 397.786C370.3 397.534 370.3 397.142 370.064 396.889C369.108 395.904 368.562 395.285 367.767 393.833C367.01 392.468 366.612 390.788 366.612 388.969C366.612 385.912 369.207 383.424 372.399 383.424C375.59 383.424 378.185 385.912 378.185 388.969C378.185 389.323 378.459 389.601 378.806 389.601C379.154 389.601 379.427 389.323 379.427 388.969C379.427 385.218 376.273 382.161 372.399 382.161C368.524 382.161 365.37 385.218 365.37 388.969C365.37 391.003 365.817 392.898 366.674 394.451C367.506 395.98 368.09 396.687 369.17 397.786ZM378.508 395.639C377.031 395.639 375.727 395.26 374.659 394.515C372.809 393.239 371.703 391.167 371.703 388.969C371.703 388.616 371.977 388.338 372.324 388.338C372.672 388.338 372.945 388.616 372.945 388.969C372.945 390.75 373.839 392.43 375.354 393.466C376.236 394.073 377.266 394.363 378.508 394.363C378.806 394.363 379.303 394.325 379.8 394.237C380.135 394.174 380.458 394.401 380.52 394.755C380.582 395.096 380.358 395.424 380.011 395.487C379.303 395.626 378.682 395.639 378.508 395.639ZM375.851 398.216C375.901 398.228 375.963 398.241 376.012 398.241C376.273 398.241 376.534 398.051 376.596 397.761C376.683 397.433 376.497 397.079 376.161 396.99C374.41 396.498 373.28 395.841 372.101 394.654C370.598 393.138 369.779 391.117 369.779 388.957C369.779 387.605 370.934 386.506 372.362 386.506C373.79 386.506 374.944 387.605 374.944 388.957C374.944 391.003 376.658 392.67 378.769 392.67C380.88 392.67 382.594 391.003 382.594 388.957C382.594 383.5 377.999 379.066 372.349 379.066C368.338 379.066 364.675 381.352 363.024 384.877C362.465 386.077 362.179 387.454 362.179 388.969C362.179 390.675 362.477 392.317 363.086 393.971C363.197 394.287 363.557 394.464 363.88 394.338C364.203 394.224 364.365 393.858 364.24 393.529C363.495 391.508 363.408 389.955 363.408 388.969C363.408 387.656 363.657 386.456 364.141 385.432C365.594 382.338 368.823 380.342 372.349 380.342C377.316 380.342 381.352 384.207 381.352 388.969C381.352 390.321 380.197 391.42 378.769 391.42C377.341 391.42 376.186 390.321 376.186 388.969C376.186 386.923 374.473 385.256 372.362 385.256C370.251 385.256 368.537 386.923 368.537 388.969C368.537 391.47 369.493 393.807 371.232 395.563C372.585 396.915 373.876 397.66 375.851 398.216Z" fill="#01426A"/>
<ellipse cx="413.774" cy="351.391" rx="29.2367" ry="29.7408" fill="#F2F2F2"/>
<path d="M399.213 350.125C398.432 350.125 397.683 350.441 397.131 351.002C396.579 351.564 396.268 352.326 396.268 353.12C396.268 353.915 396.579 354.677 397.131 355.238C397.683 355.8 398.432 356.116 399.213 356.116L399.213 353.12V350.125Z" fill="#B9975B"/>
<path d="M428.167 356.116C428.948 356.116 429.697 355.8 430.249 355.238C430.801 354.677 431.111 353.915 431.111 353.12C431.111 352.326 430.801 351.564 430.249 351.002C429.697 350.441 428.948 350.125 428.167 350.125L428.167 353.12L428.167 356.116Z" fill="#B9975B"/>
<path d="M399.213 349.798C399.213 340.605 406.666 333.152 415.859 333.152H416.492C422.94 333.152 428.167 338.379 428.167 344.827V355.117C428.167 363.113 421.685 369.594 413.69 369.594C405.694 369.594 399.213 363.113 399.213 355.117V349.798Z" fill="#D6B171"/>
<path d="M401.213 345.442C401.213 339.759 405.82 335.152 411.503 335.152H418.304C417.997 343.472 411.155 350.122 402.761 350.122H401.213V345.442Z" fill="#01426A" stroke="#01426A" stroke-width="4"/>
<path d="M426.167 342.449C426.167 338.927 423.672 335.987 420.352 335.303V343.039C420.352 346.518 422.86 349.411 426.167 350.009V342.449Z" fill="#01426A" stroke="#01426A" stroke-width="4"/>
<path d="M389.812 336.809V330.975C389.812 328.214 392.05 325.975 394.812 325.975H400.461" stroke="#FFC600" stroke-width="3" stroke-linecap="round" stroke-linejoin="round"/>
<path d="M427.847 325.975L433.496 325.975C436.258 325.975 438.496 328.214 438.496 330.975L438.496 336.809" stroke="#FFC600" stroke-width="3" stroke-linecap="round" stroke-linejoin="round"/>
<path d="M438.496 365.44L438.496 371.273C438.496 374.034 436.258 376.273 433.496 376.273L427.847 376.273" stroke="#FFC600" stroke-width="3" stroke-linecap="round" stroke-linejoin="round"/>
<path d="M400.461 376.273L394.812 376.273C392.05 376.273 389.812 374.034 389.812 371.273L389.812 365.44" stroke="#FFC600" stroke-width="3" stroke-linecap="round" stroke-linejoin="round"/>
<path d="M106.4 73.85C74.2 85.5166 16.1 127.26 41.3 200.9" stroke="#FFC600" stroke-width="4" stroke-dasharray="4 10"/>
<path d="M389.2 191.1C409.15 202.883 445.34 238.42 430.5 286.3" stroke="#FFC600" stroke-width="4" stroke-linecap="round" stroke-dasharray="4 10"/>
<circle cx="192.15" cy="368.55" r="8.05" fill="#FFC600"/>
<circle cx="351.4" cy="84.7001" r="15.4" fill="#2C85BC"/>
</svg>
