<?xml version="1.0" standalone="no"?>
<svg xmlns:xlink="http://www.w3.org/1999/xlink" id="wave" style="transform:rotate(0deg); transition: 0.3s" viewBox="0 0 1440 490" version="1.1" xmlns="http://www.w3.org/2000/svg"><defs><linearGradient id="sw-gradient-0" x1="0" x2="0" y1="1" y2="0"><stop stop-color="rgba(185, 151, 91, 1)" offset="0%"/><stop stop-color="rgba(255, 198, 0, 1)" offset="100%"/></linearGradient></defs><path style="transform:translate(0, 0px); opacity:1" fill="url(#sw-gradient-0)" d="M0,98L48,155.2C96,212,192,327,288,359.3C384,392,480,343,576,326.7C672,310,768,327,864,294C960,261,1056,180,1152,155.2C1248,131,1344,163,1440,171.5C1536,180,1632,163,1728,130.7C1824,98,1920,49,2016,73.5C2112,98,2208,196,2304,228.7C2400,261,2496,229,2592,204.2C2688,180,2784,163,2880,163.3C2976,163,3072,180,3168,171.5C3264,163,3360,131,3456,122.5C3552,114,3648,131,3744,122.5C3840,114,3936,82,4032,98C4128,114,4224,180,4320,245C4416,310,4512,376,4608,343C4704,310,4800,180,4896,106.2C4992,33,5088,16,5184,32.7C5280,49,5376,98,5472,114.3C5568,131,5664,114,5760,155.2C5856,196,5952,294,6048,285.8C6144,278,6240,163,6336,114.3C6432,65,6528,82,6624,114.3C6720,147,6816,196,6864,220.5L6912,245L6912,490L6864,490C6816,490,6720,490,6624,490C6528,490,6432,490,6336,490C6240,490,6144,490,6048,490C5952,490,5856,490,5760,490C5664,490,5568,490,5472,490C5376,490,5280,490,5184,490C5088,490,4992,490,4896,490C4800,490,4704,490,4608,490C4512,490,4416,490,4320,490C4224,490,4128,490,4032,490C3936,490,3840,490,3744,490C3648,490,3552,490,3456,490C3360,490,3264,490,3168,490C3072,490,2976,490,2880,490C2784,490,2688,490,2592,490C2496,490,2400,490,2304,490C2208,490,2112,490,2016,490C1920,490,1824,490,1728,490C1632,490,1536,490,1440,490C1344,490,1248,490,1152,490C1056,490,960,490,864,490C768,490,672,490,576,490C480,490,384,490,288,490C192,490,96,490,48,490L0,490Z"/></svg>