<svg width="41" height="41" viewBox="0 0 41 41" fill="none" xmlns="http://www.w3.org/2000/svg">
<path d="M6.20834 20.5C6.20834 19.9586 5.99324 19.4393 5.61035 19.0564C5.22747 18.6735 4.70816 18.4584 4.16668 18.4584H2.12501C1.58353 18.4584 1.06422 18.6735 0.681334 19.0564C0.298447 19.4393 0.0833435 19.9586 0.0833435 20.5C0.0833435 21.0415 0.298447 21.5608 0.681334 21.9437C1.06422 22.3266 1.58353 22.5417 2.12501 22.5417H4.16668C4.70816 22.5417 5.22747 22.3266 5.61035 21.9437C5.99324 21.5608 6.20834 21.0415 6.20834 20.5ZM7.51501 30.7084L6.06543 32.158C5.68516 32.5405 5.47173 33.058 5.47173 33.5973C5.47173 34.1367 5.68516 34.6542 6.06543 35.0367C6.44796 35.417 6.96542 35.6304 7.5048 35.6304C8.04418 35.6304 8.56165 35.417 8.94418 35.0367L10.3938 33.5871C10.7282 33.1966 10.903 32.6941 10.8832 32.1803C10.8633 31.6665 10.6503 31.179 10.2867 30.8154C9.92309 30.4518 9.43567 30.2388 8.92183 30.219C8.40799 30.1991 7.90558 30.3739 7.51501 30.7084ZM20.5 6.20837C21.0415 6.20837 21.5608 5.99327 21.9437 5.61038C22.3266 5.2275 22.5417 4.70819 22.5417 4.16671V2.12504C22.5417 1.58356 22.3266 1.06425 21.9437 0.681364C21.5608 0.298478 21.0415 0.083374 20.5 0.083374C19.9585 0.083374 19.4392 0.298478 19.0563 0.681364C18.6734 1.06425 18.4583 1.58356 18.4583 2.12504V4.16671C18.4583 4.70819 18.6734 5.2275 19.0563 5.61038C19.4392 5.99327 19.9585 6.20837 20.5 6.20837ZM32.0558 10.9859C32.5915 10.9836 33.1047 10.771 33.485 10.3938L34.9346 8.94421C35.1483 8.76118 35.3219 8.53595 35.4445 8.28265C35.567 8.02935 35.6359 7.75345 35.6467 7.47227C35.6576 7.1911 35.6102 6.91071 35.5076 6.64872C35.4049 6.38672 35.2492 6.14877 35.0503 5.9498C34.8513 5.75083 34.6133 5.59513 34.3513 5.49249C34.0893 5.38985 33.809 5.34247 33.5278 5.35333C33.2466 5.36419 32.9707 5.43305 32.7174 5.5556C32.4641 5.67815 32.2389 5.85173 32.0558 6.06546L30.7083 7.51504C30.3281 7.89757 30.1146 8.41504 30.1146 8.95442C30.1146 9.49379 30.3281 10.0113 30.7083 10.3938C31.0683 10.7518 31.5487 10.9629 32.0558 10.9859ZM7.55584 10.3938C7.93613 10.771 8.4494 10.9836 8.98501 10.9859C9.25371 10.9874 9.52007 10.9359 9.76882 10.8343C10.0176 10.7327 10.2438 10.583 10.4346 10.3938C10.8149 10.0113 11.0283 9.49379 11.0283 8.95442C11.0283 8.41504 10.8149 7.89757 10.4346 7.51504L8.98501 6.06546C8.79599 5.87375 8.57106 5.72116 8.32306 5.61639C8.07507 5.51161 7.80887 5.45671 7.53966 5.45481C7.27044 5.45292 7.00349 5.50406 6.75405 5.60534C6.5046 5.70661 6.27755 5.85602 6.08584 6.04504C5.89414 6.23406 5.74155 6.45899 5.63677 6.70699C5.532 6.95498 5.47709 7.22118 5.4752 7.4904C5.47137 8.03409 5.68368 8.55705 6.06543 8.94421L7.55584 10.3938ZM38.875 18.4584H36.8333C36.2919 18.4584 35.7726 18.6735 35.3897 19.0564C35.0068 19.4393 34.7917 19.9586 34.7917 20.5C34.7917 21.0415 35.0068 21.5608 35.3897 21.9437C35.7726 22.3266 36.2919 22.5417 36.8333 22.5417H38.875C39.4165 22.5417 39.9358 22.3266 40.3187 21.9437C40.7016 21.5608 40.9167 21.0415 40.9167 20.5C40.9167 19.9586 40.7016 19.4393 40.3187 19.0564C39.9358 18.6735 39.4165 18.4584 38.875 18.4584ZM33.485 30.7084C33.0971 30.4926 32.6495 30.4091 32.2099 30.4706C31.7703 30.532 31.3627 30.7351 31.0489 31.0489C30.735 31.3628 30.532 31.7704 30.4706 32.2099C30.4091 32.6495 30.4926 33.0972 30.7083 33.485L32.1579 34.9346C32.5405 35.3149 33.0579 35.5283 33.5973 35.5283C34.1367 35.5283 34.6541 35.3149 35.0367 34.9346C35.4169 34.5521 35.6304 34.0346 35.6304 33.4953C35.6304 32.9559 35.4169 32.4384 35.0367 32.0559L33.485 30.7084ZM20.5 9.27087C18.2791 9.27087 16.108 9.92945 14.2614 11.1633C12.4148 12.3972 10.9755 14.151 10.1256 16.2028C9.2757 18.2547 9.05333 20.5125 9.48661 22.6907C9.91989 24.869 10.9894 26.8698 12.5598 28.4403C14.1302 30.0107 16.1311 31.0802 18.3093 31.5134C20.4876 31.9467 22.7454 31.7243 24.7972 30.8744C26.8491 30.0245 28.6028 28.5853 29.8367 26.7386C31.0706 24.892 31.7292 22.721 31.7292 20.5C31.7238 17.5235 30.539 14.6705 28.4343 12.5658C26.3296 10.4611 23.4765 9.27627 20.5 9.27087ZM20.5 27.6459C19.0867 27.6459 17.7051 27.2268 16.53 26.4416C15.3549 25.6564 14.439 24.5404 13.8981 23.2346C13.3573 21.9289 13.2158 20.4921 13.4915 19.106C13.7672 17.7198 14.4478 16.4465 15.4471 15.4472C16.4465 14.4478 17.7198 13.7672 19.1059 13.4915C20.4921 13.2158 21.9289 13.3573 23.2346 13.8982C24.5403 14.439 25.6564 15.3549 26.4416 16.53C27.2267 17.7052 27.6458 19.0867 27.6458 20.5C27.6458 22.3952 26.893 24.2128 25.5529 25.5529C24.2128 26.893 22.3952 27.6459 20.5 27.6459ZM20.5 34.7917C19.9585 34.7917 19.4392 35.0068 19.0563 35.3897C18.6734 35.7726 18.4583 36.2919 18.4583 36.8334V38.875C18.4583 39.4165 18.6734 39.9358 19.0563 40.3187C19.4392 40.7016 19.9585 40.9167 20.5 40.9167C21.0415 40.9167 21.5608 40.7016 21.9437 40.3187C22.3266 39.9358 22.5417 39.4165 22.5417 38.875V36.8334C22.5417 36.2919 22.3266 35.7726 21.9437 35.3897C21.5608 35.0068 21.0415 34.7917 20.5 34.7917Z" fill="#FFC600"/>
</svg>
